<svg xmlns="http://www.w3.org/2000/svg" width="1280" height="640"><defs><linearGradient id="bgGradient" x1="0%" x2="100%" y1="0%" y2="100%"><stop offset="0%" style="stop-color:#fff;stop-opacity:1"/><stop offset="100%" style="stop-color:#f2f2fd;stop-opacity:1"/></linearGradient><style>.header-text{font-family:Inter,sans-serif;font-weight:700;letter-spacing:-.5px}.tagline-text{font-family:Metropolis,sans-serif;font-weight:400}.primary-text{fill:#0000d0}</style></defs><rect width="1280" height="640" fill="url(#bgGradient)"/><rect width="8" height="640" fill="#FF3184"/><circle cx="130" cy="120" r="60" fill="#0000D0" opacity=".1"/><circle cx="130" cy="120" r="45" fill="none" stroke="#0000D0" stroke-width="3"/><text x="130" y="135" fill="#0000D0" font-family="Inter, sans-serif" font-size="60" font-weight="700" text-anchor="middle">FE</text><text x="250" y="100" class="header-text primary-text" font-size="56">FindingExcellence PRO</text><rect width="120" height="40" x="250" y="120" fill="#0000D0" rx="20"/><text x="310" y="145" fill="#fff" font-family="Inter, sans-serif" font-size="18" font-weight="600" text-anchor="middle">v2.0</text><text x="250" y="200" class="tagline-text" font-size="32">Privacy-first intelligent file search</text><text x="250" y="240" class="tagline-text" font-size="32"><tspan class="primary-text">100% Local AI • Zero External APIs</tspan></text><g><circle cx="250" cy="380" r="32" fill="#FF3184" opacity=".1"/><text x="250" y="395" font-size="36" text-anchor="middle">⚡</text><text x="320" y="385" fill="#000" font-family="Inter, sans-serif" font-size="20" font-weight="600">Blazingly Fast</text><text x="320" y="410" fill="#666" font-family="Metropolis, sans-serif" font-size="16">Search 1M+ files in seconds</text><circle cx="650" cy="380" r="32" fill="#0000D0" opacity=".1"/><text x="650" y="395" font-size="36" text-anchor="middle">🔒</text><text x="720" y="385" fill="#000" font-family="Inter, sans-serif" font-size="20" font-weight="600">100% Private</text><text x="720" y="410" fill="#666" font-family="Metropolis, sans-serif" font-size="16">All processing local via Ollama</text><circle cx="1050" cy="380" r="32" fill="#FF3184" opacity=".1"/><text x="1050" y="395" font-size="36" text-anchor="middle">✨</text><text x="1120" y="385" fill="#000" font-family="Inter, sans-serif" font-size="20" font-weight="600">AI Analytics</text><text x="1120" y="410" fill="#666" font-family="Metropolis, sans-serif" font-size="16">Summarize, extract, analyze</text></g><rect width="900" height="100" x="250" y="500" fill="#0000D0" opacity=".05" rx="12"/><text x="600" y="540" fill="#0000D0" font-family="Inter, sans-serif" font-size="24" font-weight="600" text-anchor="middle">Built by Ayesa</text><text x="600" y="570" fill="#666" font-family="Metropolis, sans-serif" font-size="18" text-anchor="middle">Finding Excellence in intelligent file search</text><rect width="60" height="8" x="1200" y="20" fill="#FF3184" rx="4"/><rect width="60" height="8" x="1200" y="60" fill="#0000D0" rx="4"/></svg>